<svg xmlns="http://www.w3.org/2000/svg" width="114" height="25" fill="none" viewBox="0 0 114 25"><path fill="#fff" fill-rule="evenodd" d="M15.516 15.2l3.103-3.104-9.31-9.31L0 12.096l3.103 3.103a8.777 8.777 0 0112.413 0z" clip-rule="evenodd"></path><path fill="#fff" d="M33.261 17.28c-1.267 0-2.396-.265-3.387-.795a6.29 6.29 0 01-2.35-2.246c-.553-.945-.83-2.016-.83-3.214v-4.77c0-1.198.289-2.27.865-3.214A6.032 6.032 0 0129.909.83C30.899.277 32.017 0 33.26 0c1.498 0 2.845.392 4.044 1.175 1.22.76 2.177 1.797 2.868 3.11.714 1.29 1.071 2.754 1.071 4.39 0 1.612-.357 3.075-1.07 4.389a8.013 8.013 0 01-2.87 3.076c-1.198.76-2.545 1.14-4.043 1.14zm-.622-3.594c.922 0 1.728-.208 2.42-.622a4.46 4.46 0 001.658-1.797c.415-.76.622-1.636.622-2.627 0-.99-.207-1.866-.622-2.627a4.228 4.228 0 00-1.659-1.762c-.691-.438-1.497-.657-2.419-.657-.922 0-1.74.22-2.454.657a4.228 4.228 0 00-1.659 1.762c-.391.76-.587 1.636-.587 2.627 0 .99.196 1.866.587 2.627a4.46 4.46 0 001.66 1.797c.713.414 1.531.622 2.453.622zm-8.26 10.16V.346h3.802v4.458l-.657 4.043.657 4.01v10.99h-3.802zM49.645 17.28c-1.497 0-2.857-.38-4.078-1.14-1.198-.76-2.154-1.786-2.868-3.076-.691-1.314-1.037-2.777-1.037-4.39 0-1.635.346-3.098 1.037-4.389.714-1.313 1.67-2.35 2.868-3.11C46.788.392 48.147 0 49.645 0c1.267 0 2.385.277 3.352.83a6.031 6.031 0 012.35 2.211c.577.945.865 2.016.865 3.214v4.77c0 1.198-.288 2.27-.864 3.214a6.03 6.03 0 01-2.316 2.246c-.99.53-2.12.795-3.387.795zm.622-3.594c1.406 0 2.535-.473 3.387-1.417.876-.945 1.313-2.154 1.313-3.629 0-.99-.195-1.866-.587-2.627a4.227 4.227 0 00-1.659-1.762c-.691-.438-1.51-.657-2.454-.657-.921 0-1.74.22-2.454.657-.69.415-1.244 1.002-1.658 1.762-.392.76-.588 1.636-.588 2.627 0 .99.196 1.866.588 2.627.414.76.967 1.359 1.658 1.797.715.414 1.533.622 2.454.622zm4.458 3.248v-4.458l.657-4.043-.657-4.01V.347h3.802v16.588h-3.802zM67.93 24.192c-1.75 0-3.283-.323-4.596-.968-1.314-.622-2.373-1.509-3.18-2.66l2.488-2.49c.669.83 1.429 1.452 2.281 1.867.853.415 1.878.622 3.076.622 1.498 0 2.684-.391 3.56-1.175.876-.76 1.313-1.809 1.313-3.145v-4.078l.657-3.663-.657-3.698V.346h3.802v15.897c0 1.59-.369 2.972-1.106 4.147-.737 1.198-1.763 2.132-3.076 2.8-1.313.668-2.834 1.002-4.562 1.002zm-.173-7.603c-1.474 0-2.81-.357-4.009-1.071-1.175-.738-2.108-1.74-2.799-3.007-.668-1.268-1.002-2.684-1.002-4.251 0-1.567.334-2.972 1.002-4.216.691-1.245 1.624-2.224 2.8-2.938C64.945.369 66.282 0 67.756 0c1.314 0 2.466.265 3.456.795a5.788 5.788 0 012.316 2.212c.553.921.83 2.004.83 3.248v4.079c0 1.22-.289 2.303-.865 3.248a5.788 5.788 0 01-2.315 2.212c-.99.53-2.131.795-3.422.795zm.76-3.594c.922 0 1.729-.196 2.42-.588a3.996 3.996 0 001.59-1.624c.391-.714.587-1.544.587-2.489 0-.944-.196-1.762-.587-2.453a3.944 3.944 0 00-1.59-1.66c-.691-.39-1.498-.587-2.42-.587-.92 0-1.739.196-2.453.588A4.169 4.169 0 0064.44 5.84c-.392.69-.588 1.509-.588 2.453 0 .922.196 1.74.588 2.454a4.17 4.17 0 001.624 1.66c.714.39 1.532.587 2.454.587zM86.08 24.192c-1.75 0-3.282-.323-4.596-.968-1.313-.622-2.373-1.509-3.18-2.66l2.49-2.49c.667.83 1.428 1.452 2.28 1.867.853.415 1.878.622 3.076.622 1.498 0 2.684-.391 3.56-1.175.875-.76 1.313-1.809 1.313-3.145v-4.078l.657-3.663-.657-3.698V.346h3.802v15.897c0 1.59-.369 2.972-1.106 4.147-.738 1.198-1.763 2.132-3.076 2.8-1.313.668-2.834 1.002-4.562 1.002zm-.172-7.603c-1.474 0-2.81-.357-4.009-1.071-1.175-.738-2.108-1.74-2.8-3.007-.667-1.268-1.001-2.684-1.001-4.251 0-1.567.334-2.972 1.002-4.216.691-1.245 1.624-2.224 2.8-2.938C83.096.369 84.433 0 85.907 0c1.313 0 2.465.265 3.456.795a5.787 5.787 0 012.316 2.212c.553.921.83 2.004.83 3.248v4.079c0 1.22-.289 2.303-.865 3.248a5.788 5.788 0 01-2.315 2.212c-.991.53-2.132.795-3.422.795zm.76-3.594c.922 0 1.728-.196 2.42-.588a3.996 3.996 0 001.59-1.624c.391-.714.587-1.544.587-2.489 0-.944-.196-1.762-.588-2.453a3.944 3.944 0 00-1.59-1.66c-.69-.39-1.497-.587-2.419-.587-.921 0-1.74.196-2.453.588A4.168 4.168 0 0082.59 5.84c-.391.69-.587 1.509-.587 2.453 0 .922.196 1.74.587 2.454a4.169 4.169 0 001.625 1.66c.714.39 1.532.587 2.453.587zM104.923 17.28c-1.613 0-3.076-.38-4.389-1.14a8.937 8.937 0 01-3.145-3.145c-.76-1.314-1.14-2.777-1.14-4.39 0-1.612.38-3.064 1.14-4.354a8.748 8.748 0 013.145-3.076C101.847.392 103.31 0 104.923 0c1.636 0 3.11.38 4.424 1.14a8.393 8.393 0 013.11 3.11c.783 1.291 1.175 2.743 1.175 4.355 0 1.613-.392 3.076-1.175 4.39a8.658 8.658 0 01-3.11 3.145c-1.314.76-2.788 1.14-4.424 1.14zm0-3.663c.945 0 1.774-.208 2.488-.622a4.394 4.394 0 001.694-1.797c.414-.76.622-1.625.622-2.593 0-.967-.208-1.82-.622-2.557a4.525 4.525 0 00-1.694-1.728c-.714-.438-1.543-.657-2.488-.657-.922 0-1.751.22-2.488.657a4.518 4.518 0 00-1.694 1.728c-.392.737-.587 1.59-.587 2.557 0 .968.195 1.832.587 2.592.415.76.979 1.36 1.694 1.798.737.414 1.566.622 2.488.622z"></path></svg>